<svg width="22" height="22" viewBox="0 0 22 22" fill="none" xmlns="http://www.w3.org/2000/svg">
<g clip-path="url(#clip0_117_739)">
<path d="M14.9492 12.6689C13.9655 12.6689 13.6409 13.4171 13.5422 13.7645H16.1684C16.1438 13.5716 16.0667 13.2326 15.8213 12.9854C15.6122 12.7757 15.3197 12.6689 14.9492 12.6689Z" fill="#804973"/>
<path d="M8.19854 14.0664C8.19764 14.0664 8.19764 14.0664 8.19764 14.0664H5.71094V16.1865H8.06264C8.48204 16.176 9.00164 16.041 9.00164 15.1599C9.00164 14.097 8.28074 14.0664 8.19854 14.0664Z" fill="#804973"/>
<path d="M19.4103 0.0214844H2.01034C1.06504 0.0214844 0.265841 0.646384 0.00244141 1.50528V20.1374C0.224741 20.8631 0.829542 21.4214 1.58194 21.5774H19.8384C20.5698 21.4259 21.1602 20.8931 21.3972 20.1968V1.44588C21.1155 0.617884 20.3334 0.0214844 19.4103 0.0214844ZM12.8802 9.13399C12.8802 9.05089 12.948 8.98338 13.0308 8.98338H16.7703C16.8525 8.98338 16.9206 9.05089 16.9206 9.13399V10.2503C16.9206 10.3334 16.8522 10.4006 16.7703 10.4006H13.0308C12.948 10.4006 12.8802 10.3334 12.8802 10.2503V9.13399ZM11.292 15.3257C11.292 16.7507 10.5381 17.438 9.90454 17.7617C9.21424 18.1154 8.49874 18.143 8.29534 18.143H3.54844C3.46624 18.143 3.39784 18.0749 3.39784 17.9921V8.93058C3.39784 8.84748 3.46624 8.77968 3.54844 8.77968H8.26474C9.93874 8.77968 10.9788 9.76188 10.9788 11.3438C10.9788 12.3236 10.5015 12.7937 10.0815 13.0175C10.317 13.1006 10.5225 13.2332 10.6938 13.4162C11.352 14.1122 11.2956 15.2762 11.292 15.3257ZM18.2832 15.1892C18.2742 15.2642 18.21 15.3203 18.1341 15.3203H13.5942C13.6269 15.818 13.824 16.1771 14.1801 16.3892C14.4951 16.5761 14.8434 16.5965 14.9772 16.5965C15.0051 16.5965 15.0225 16.5953 15.0246 16.5947C15.5457 16.5947 15.9156 16.4798 16.1337 16.253C16.3428 16.0352 16.3371 15.7889 16.3356 15.7784C16.3356 15.737 16.3494 15.6971 16.3788 15.6671C16.4067 15.6377 16.4457 15.6206 16.4874 15.6206H18.0813C18.1647 15.6206 18.2325 15.6881 18.2325 15.7715C18.2325 18.2108 15.6276 18.3344 15.1038 18.3344C15.0201 18.3344 14.9724 18.3314 14.9724 18.3314C14.9724 18.3314 14.9718 18.3314 14.9709 18.3314C13.7949 18.3314 12.8748 17.9885 12.2436 17.3129C11.2545 16.2527 11.3448 14.7695 11.3493 14.7071C11.3493 14.6804 11.3535 13.8014 11.7978 12.9095C12.2151 12.0776 13.1034 11.0852 14.9814 11.0852C16.0575 11.0852 16.8954 11.4158 17.4675 12.0674C18.5202 13.2677 18.2952 15.1112 18.2832 15.1892Z" fill="#804973"/>
<path d="M8.68694 11.4392C8.68694 10.6565 8.21744 10.6475 8.19794 10.6475H7.85744H5.71094V12.3677H8.03354C8.37884 12.3677 8.68694 12.2969 8.68694 11.4392Z" fill="#804973"/>
</g>
<defs>
<clipPath id="clip0_117_739">
<rect width="21.4" height="21.6" fill="white"/>
</clipPath>
</defs>
</svg>
