<svg width="22" height="25" viewBox="0 0 22 25" fill="none" xmlns="http://www.w3.org/2000/svg">
<g clip-path="url(#clip0_117_745)">
<path d="M19.351 1.53125H2.32212C1.04011 1.53125 0 2.56006 0 3.82812V20.6719C0 21.9399 1.04011 22.9688 2.32212 22.9688H19.351C20.633 22.9688 21.6731 21.9399 21.6731 20.6719V3.82812C21.6731 2.56006 20.633 1.53125 19.351 1.53125ZM13.4151 19.8919C13.0087 19.9637 12.8587 19.7148 12.8587 19.5091C12.8587 19.2507 12.8684 17.93 12.8684 16.8629C12.8684 16.1164 12.6168 15.6427 12.3217 15.3938C14.1117 15.1977 15.9984 14.9536 15.9984 11.8959C15.9984 11.025 15.684 10.5896 15.1712 10.0297C15.2534 9.82393 15.5291 8.97695 15.0889 7.87637C14.4165 7.67061 12.8781 8.73291 12.8781 8.73291C12.2395 8.55586 11.5477 8.46494 10.8656 8.46494C10.1834 8.46494 9.49165 8.55586 8.85307 8.73291C8.85307 8.73291 7.31466 7.67061 6.64222 7.87637C6.20198 8.97217 6.4729 9.81914 6.55998 10.0297C6.04718 10.5896 5.80529 11.025 5.80529 11.8959C5.80529 14.9393 7.60977 15.1977 9.39973 15.3938C9.16752 15.5996 8.9595 15.9537 8.88693 16.4609C8.42734 16.6667 7.25177 17.0208 6.5503 15.7958C6.11007 15.0397 5.31668 14.9775 5.31668 14.9775C4.53296 14.968 5.26346 15.4656 5.26346 15.4656C5.78594 15.7049 6.15361 16.6236 6.15361 16.6236C6.62287 18.0448 8.86758 17.5663 8.86758 17.5663C8.86758 18.2314 8.87725 19.3129 8.87725 19.5091C8.87725 19.7148 8.73212 19.9637 8.32091 19.8919C5.12801 18.8344 2.89297 15.8293 2.89297 12.317C2.89297 7.92422 6.28906 4.58896 10.7301 4.58896C15.1712 4.58896 18.7704 7.92422 18.7704 12.317C18.7753 15.8293 16.608 18.8392 13.4151 19.8919ZM8.66923 16.9682C8.57731 16.9873 8.49024 16.949 8.48056 16.8868C8.47088 16.815 8.53377 16.7528 8.62569 16.7337C8.71761 16.7241 8.80469 16.7624 8.81436 16.8246C8.82888 16.8868 8.76599 16.949 8.66923 16.9682ZM8.20965 16.9251C8.20965 16.9873 8.13708 17.0399 8.04033 17.0399C7.93389 17.0495 7.86133 16.9969 7.86133 16.9251C7.86133 16.8629 7.93389 16.8103 8.03065 16.8103C8.12257 16.8007 8.20965 16.8533 8.20965 16.9251ZM7.54688 16.8725C7.52752 16.9347 7.43077 16.9634 7.34853 16.9347C7.25661 16.9155 7.19372 16.8438 7.21307 16.7815C7.23242 16.7193 7.32918 16.6906 7.41142 16.7098C7.50817 16.7385 7.57106 16.8103 7.54688 16.8725ZM6.95183 16.6141C6.90829 16.6667 6.81638 16.6571 6.74381 16.5854C6.67124 16.5231 6.65189 16.4322 6.70027 16.3892C6.74381 16.3365 6.83573 16.3461 6.90829 16.4179C6.97118 16.4801 6.99537 16.5758 6.95183 16.6141ZM6.5116 16.1786C6.46806 16.2073 6.38582 16.1786 6.3326 16.1068C6.27939 16.0351 6.27939 15.9537 6.3326 15.9202C6.38582 15.8771 6.46806 15.9106 6.5116 15.9824C6.56481 16.0542 6.56481 16.1403 6.5116 16.1786ZM6.19715 15.7145C6.15361 15.7575 6.08104 15.7336 6.02782 15.6857C5.97461 15.6235 5.96493 15.5518 6.00847 15.5183C6.05201 15.4752 6.12458 15.4991 6.17779 15.547C6.23101 15.6092 6.24069 15.681 6.19715 15.7145ZM5.87302 15.3604C5.85367 15.4034 5.79078 15.413 5.73756 15.3795C5.67467 15.3508 5.64564 15.2981 5.66499 15.2551C5.68435 15.2264 5.73756 15.212 5.80045 15.2359C5.86334 15.2694 5.89237 15.3221 5.87302 15.3604Z" fill="#804973"/>
</g>
<defs>
<clipPath id="clip0_117_745">
<rect width="21.6731" height="24.5" fill="white"/>
</clipPath>
</defs>
</svg>
