<svg width="23" height="28" viewBox="0 0 23 28" fill="none" xmlns="http://www.w3.org/2000/svg">
<g clip-path="url(#clip0_117_762)">
<path d="M0 20.6879V7.31206C0 6.20484 0.408372 5.25924 1.22512 4.47527C2.04186 3.6913 3.02699 3.29932 4.18049 3.29932H18.1155C19.269 3.29932 20.2541 3.6913 21.0708 4.47527C21.8876 5.25924 22.296 6.20484 22.296 7.31206V20.6879C22.296 21.7951 21.8876 22.7407 21.0708 23.5246C20.2541 24.3086 19.269 24.7006 18.1155 24.7006H4.18049C3.02699 24.7006 2.04186 24.3086 1.22512 23.5246C0.408372 22.7407 0 21.7951 0 20.6879ZM3.71599 20.6879C3.71599 20.8068 3.76244 20.9108 3.85534 21C3.94824 21.0891 4.05662 21.1337 4.18049 21.1337H6.96749C7.09135 21.1337 7.19974 21.091 7.29263 21.0055C7.38553 20.9201 7.43198 20.8142 7.43198 20.6879V11.7707C7.43198 11.6518 7.38553 11.5477 7.29263 11.4586C7.19974 11.3694 7.09135 11.3248 6.96749 11.3248H4.18049C4.05662 11.3248 3.94824 11.3694 3.85534 11.4586C3.76244 11.5477 3.71599 11.6518 3.71599 11.7707V20.6879ZM4.23855 7.37336C3.89018 7.71147 3.71599 8.11832 3.71599 8.5939C3.71599 9.06949 3.89018 9.47633 4.23855 9.81445C4.58693 10.1526 5.00885 10.3216 5.50431 10.3216C6.023 10.3216 6.44879 10.1507 6.78169 9.80887C7.13006 9.47448 7.30425 9.06949 7.30425 8.5939C7.30425 8.11832 7.12812 7.71147 6.77588 7.37336C6.42363 7.03525 5.99978 6.8662 5.50431 6.8662C5.00885 6.8662 4.58693 7.03525 4.23855 7.37336ZM8.36098 20.6879C8.36098 20.8068 8.43453 20.9108 8.58162 21C8.72871 21.0891 8.8758 21.1337 9.02289 21.1337H11.6705C11.7789 21.1337 11.8738 21.0891 11.955 21C12.0363 20.9108 12.077 20.8068 12.077 20.6879V15.828C12.077 14.5276 12.6305 13.8773 13.7376 13.8773C14.1943 13.8773 14.4962 13.9739 14.6433 14.1672C14.7904 14.3604 14.864 14.7096 14.864 15.2149V20.6879C14.864 20.8068 14.922 20.9108 15.0382 21C15.1543 21.0891 15.282 21.1337 15.4214 21.1337H18.1155C18.2393 21.1337 18.3477 21.091 18.4406 21.0055C18.5335 20.9201 18.58 20.8142 18.58 20.6879V14.6353C18.58 13.4686 18.2297 12.5751 17.529 11.9546C16.8284 11.3341 15.8433 11.0238 14.5737 11.0238C13.6989 11.0238 12.9363 11.2356 12.286 11.6592C12.1544 11.7335 12.0847 11.7892 12.077 11.8264C12.077 11.492 11.9105 11.3248 11.5776 11.3248H9.02289C8.86806 11.3248 8.71903 11.362 8.57581 11.4363C8.43259 11.5106 8.36098 11.6035 8.36098 11.7149V20.6879Z" fill="#804973"/>
</g>
<defs>
<clipPath id="clip0_117_762">
<rect width="22.3" height="28" fill="white"/>
</clipPath>
</defs>
</svg>
